<mxfile host="app.diagrams.net" modified="2022-04-05T12:05:41.593Z" agent="5.0 (Windows NT 10.0; Win64; x64) AppleWebKit/537.36 (KHTML, like Gecko) Chrome/100.0.4896.60 Safari/537.36" etag="6HFuV-SvjyrGgyl8fLbn" version="17.4.0" type="github">
  <diagram id="_VnRxVOxKZvsmgF89LPQ" name="Page-1">
    <mxGraphModel dx="1511" dy="762" grid="1" gridSize="10" guides="1" tooltips="1" connect="1" arrows="1" fold="1" page="1" pageScale="1" pageWidth="827" pageHeight="1169" math="0" shadow="0">
      <root>
        <mxCell id="0" />
        <mxCell id="1" parent="0" />
        <mxCell id="7BjRfpzNFmG8VPF8MhMl-1" value="" style="rounded=0;whiteSpace=wrap;html=1;fillColor=none;" vertex="1" parent="1">
          <mxGeometry x="70" y="80" width="460" height="300" as="geometry" />
        </mxCell>
        <mxCell id="7BjRfpzNFmG8VPF8MhMl-2" value="Excel" style="text;html=1;strokeColor=none;fillColor=none;align=center;verticalAlign=middle;whiteSpace=wrap;rounded=0;" vertex="1" parent="1">
          <mxGeometry x="70" y="50" width="60" height="30" as="geometry" />
        </mxCell>
        <mxCell id="7BjRfpzNFmG8VPF8MhMl-3" value="" style="rounded=0;whiteSpace=wrap;html=1;fillColor=none;" vertex="1" parent="1">
          <mxGeometry x="70" y="80" width="460" height="40" as="geometry" />
        </mxCell>
        <mxCell id="7BjRfpzNFmG8VPF8MhMl-4" value="" style="rounded=0;whiteSpace=wrap;html=1;fillColor=none;" vertex="1" parent="1">
          <mxGeometry x="70" y="90" width="120" height="20" as="geometry" />
        </mxCell>
        <mxCell id="7BjRfpzNFmG8VPF8MhMl-5" value="Name" style="text;html=1;strokeColor=none;fillColor=none;align=center;verticalAlign=middle;whiteSpace=wrap;rounded=0;" vertex="1" parent="1">
          <mxGeometry x="100" y="85" width="60" height="30" as="geometry" />
        </mxCell>
        <mxCell id="7BjRfpzNFmG8VPF8MhMl-6" value="" style="rounded=0;whiteSpace=wrap;html=1;fillColor=none;" vertex="1" parent="1">
          <mxGeometry x="490" y="90" width="20" height="20" as="geometry" />
        </mxCell>
        <mxCell id="7BjRfpzNFmG8VPF8MhMl-7" value="" style="rounded=0;whiteSpace=wrap;html=1;fillColor=none;" vertex="1" parent="1">
          <mxGeometry x="450" y="90" width="20" height="20" as="geometry" />
        </mxCell>
        <mxCell id="7BjRfpzNFmG8VPF8MhMl-8" value="" style="rounded=0;whiteSpace=wrap;html=1;fillColor=none;" vertex="1" parent="1">
          <mxGeometry x="70" y="120" width="460" height="40" as="geometry" />
        </mxCell>
        <mxCell id="7BjRfpzNFmG8VPF8MhMl-43" style="edgeStyle=orthogonalEdgeStyle;rounded=0;orthogonalLoop=1;jettySize=auto;html=1;entryX=0;entryY=0.5;entryDx=0;entryDy=0;" edge="1" parent="1" source="7BjRfpzNFmG8VPF8MhMl-9" target="7BjRfpzNFmG8VPF8MhMl-10">
          <mxGeometry relative="1" as="geometry" />
        </mxCell>
        <mxCell id="7BjRfpzNFmG8VPF8MhMl-9" value="" style="rounded=0;whiteSpace=wrap;html=1;fillColor=none;" vertex="1" parent="1">
          <mxGeometry x="90" y="130" width="20" height="20" as="geometry" />
        </mxCell>
        <mxCell id="7BjRfpzNFmG8VPF8MhMl-44" style="edgeStyle=orthogonalEdgeStyle;rounded=0;orthogonalLoop=1;jettySize=auto;html=1;entryX=0;entryY=0.5;entryDx=0;entryDy=0;" edge="1" parent="1" source="7BjRfpzNFmG8VPF8MhMl-10" target="7BjRfpzNFmG8VPF8MhMl-11">
          <mxGeometry relative="1" as="geometry" />
        </mxCell>
        <mxCell id="7BjRfpzNFmG8VPF8MhMl-10" value="" style="rounded=0;whiteSpace=wrap;html=1;fillColor=none;" vertex="1" parent="1">
          <mxGeometry x="160" y="130" width="20" height="20" as="geometry" />
        </mxCell>
        <mxCell id="7BjRfpzNFmG8VPF8MhMl-45" style="edgeStyle=orthogonalEdgeStyle;rounded=0;orthogonalLoop=1;jettySize=auto;html=1;" edge="1" parent="1" source="7BjRfpzNFmG8VPF8MhMl-11" target="7BjRfpzNFmG8VPF8MhMl-12">
          <mxGeometry relative="1" as="geometry" />
        </mxCell>
        <mxCell id="7BjRfpzNFmG8VPF8MhMl-11" value="" style="rounded=0;whiteSpace=wrap;html=1;fillColor=none;" vertex="1" parent="1">
          <mxGeometry x="230" y="130" width="20" height="20" as="geometry" />
        </mxCell>
        <mxCell id="7BjRfpzNFmG8VPF8MhMl-46" style="edgeStyle=orthogonalEdgeStyle;rounded=0;orthogonalLoop=1;jettySize=auto;html=1;entryX=0;entryY=0.5;entryDx=0;entryDy=0;" edge="1" parent="1" source="7BjRfpzNFmG8VPF8MhMl-12" target="7BjRfpzNFmG8VPF8MhMl-13">
          <mxGeometry relative="1" as="geometry" />
        </mxCell>
        <mxCell id="7BjRfpzNFmG8VPF8MhMl-12" value="" style="rounded=0;whiteSpace=wrap;html=1;fillColor=none;" vertex="1" parent="1">
          <mxGeometry x="300" y="130" width="20" height="20" as="geometry" />
        </mxCell>
        <mxCell id="7BjRfpzNFmG8VPF8MhMl-47" style="edgeStyle=orthogonalEdgeStyle;rounded=0;orthogonalLoop=1;jettySize=auto;html=1;entryX=0;entryY=0.5;entryDx=0;entryDy=0;" edge="1" parent="1" source="7BjRfpzNFmG8VPF8MhMl-13" target="7BjRfpzNFmG8VPF8MhMl-14">
          <mxGeometry relative="1" as="geometry" />
        </mxCell>
        <mxCell id="7BjRfpzNFmG8VPF8MhMl-13" value="" style="rounded=0;whiteSpace=wrap;html=1;fillColor=none;" vertex="1" parent="1">
          <mxGeometry x="370" y="130" width="20" height="20" as="geometry" />
        </mxCell>
        <mxCell id="7BjRfpzNFmG8VPF8MhMl-14" value="" style="rounded=0;whiteSpace=wrap;html=1;fillColor=none;" vertex="1" parent="1">
          <mxGeometry x="440" y="130" width="20" height="20" as="geometry" />
        </mxCell>
        <mxCell id="7BjRfpzNFmG8VPF8MhMl-15" value="" style="rounded=0;whiteSpace=wrap;html=1;fillColor=none;" vertex="1" parent="1">
          <mxGeometry x="70" y="520" width="460" height="300" as="geometry" />
        </mxCell>
        <mxCell id="7BjRfpzNFmG8VPF8MhMl-16" value="Dashboard" style="text;html=1;strokeColor=none;fillColor=none;align=center;verticalAlign=middle;whiteSpace=wrap;rounded=0;" vertex="1" parent="1">
          <mxGeometry x="70" y="490" width="60" height="30" as="geometry" />
        </mxCell>
        <mxCell id="7BjRfpzNFmG8VPF8MhMl-17" value="" style="rounded=0;whiteSpace=wrap;html=1;fillColor=none;" vertex="1" parent="1">
          <mxGeometry x="70" y="560" width="460" height="70" as="geometry" />
        </mxCell>
        <mxCell id="7BjRfpzNFmG8VPF8MhMl-18" value="Excel Dashboard" style="text;html=1;strokeColor=none;fillColor=none;align=center;verticalAlign=middle;whiteSpace=wrap;rounded=0;" vertex="1" parent="1">
          <mxGeometry x="245" y="520" width="110" height="30" as="geometry" />
        </mxCell>
        <mxCell id="7BjRfpzNFmG8VPF8MhMl-26" value="" style="rounded=0;whiteSpace=wrap;html=1;fillColor=none;" vertex="1" parent="1">
          <mxGeometry x="70" y="160" width="460" height="40" as="geometry" />
        </mxCell>
        <mxCell id="7BjRfpzNFmG8VPF8MhMl-27" value="" style="whiteSpace=wrap;html=1;aspect=fixed;fillColor=none;" vertex="1" parent="1">
          <mxGeometry x="70" y="160" width="40" height="40" as="geometry" />
        </mxCell>
        <mxCell id="7BjRfpzNFmG8VPF8MhMl-28" value="fx" style="text;html=1;strokeColor=none;fillColor=none;align=center;verticalAlign=middle;whiteSpace=wrap;rounded=0;" vertex="1" parent="1">
          <mxGeometry x="60" y="165" width="60" height="30" as="geometry" />
        </mxCell>
        <mxCell id="7BjRfpzNFmG8VPF8MhMl-29" value="Table" style="text;html=1;strokeColor=none;fillColor=none;align=center;verticalAlign=middle;whiteSpace=wrap;rounded=0;" vertex="1" parent="1">
          <mxGeometry x="260" y="260" width="60" height="30" as="geometry" />
        </mxCell>
        <mxCell id="7BjRfpzNFmG8VPF8MhMl-30" value="+" style="rounded=0;whiteSpace=wrap;html=1;fillColor=none;" vertex="1" parent="1">
          <mxGeometry x="130" y="567.5" width="100" height="55" as="geometry" />
        </mxCell>
        <mxCell id="7BjRfpzNFmG8VPF8MhMl-31" value="" style="rounded=0;whiteSpace=wrap;html=1;fillColor=none;" vertex="1" parent="1">
          <mxGeometry x="120" y="660" width="360" height="30" as="geometry" />
        </mxCell>
        <mxCell id="7BjRfpzNFmG8VPF8MhMl-32" value="Name table" style="text;html=1;strokeColor=none;fillColor=none;align=center;verticalAlign=middle;whiteSpace=wrap;rounded=0;" vertex="1" parent="1">
          <mxGeometry x="120" y="660" width="80" height="30" as="geometry" />
        </mxCell>
        <mxCell id="7BjRfpzNFmG8VPF8MhMl-33" value="Data&amp;nbsp;" style="text;html=1;strokeColor=none;fillColor=none;align=center;verticalAlign=middle;whiteSpace=wrap;rounded=0;" vertex="1" parent="1">
          <mxGeometry x="420" y="660" width="60" height="30" as="geometry" />
        </mxCell>
        <mxCell id="7BjRfpzNFmG8VPF8MhMl-34" value="" style="rounded=0;whiteSpace=wrap;html=1;fillColor=none;" vertex="1" parent="1">
          <mxGeometry x="120" y="710" width="360" height="30" as="geometry" />
        </mxCell>
        <mxCell id="7BjRfpzNFmG8VPF8MhMl-35" value="Name table" style="text;html=1;strokeColor=none;fillColor=none;align=center;verticalAlign=middle;whiteSpace=wrap;rounded=0;" vertex="1" parent="1">
          <mxGeometry x="120" y="710" width="80" height="30" as="geometry" />
        </mxCell>
        <mxCell id="7BjRfpzNFmG8VPF8MhMl-36" value="Data&amp;nbsp;" style="text;html=1;strokeColor=none;fillColor=none;align=center;verticalAlign=middle;whiteSpace=wrap;rounded=0;" vertex="1" parent="1">
          <mxGeometry x="420" y="710" width="60" height="30" as="geometry" />
        </mxCell>
        <mxCell id="7BjRfpzNFmG8VPF8MhMl-37" value="" style="rounded=0;whiteSpace=wrap;html=1;fillColor=none;" vertex="1" parent="1">
          <mxGeometry x="120" y="760" width="360" height="30" as="geometry" />
        </mxCell>
        <mxCell id="7BjRfpzNFmG8VPF8MhMl-38" value="Name table" style="text;html=1;strokeColor=none;fillColor=none;align=center;verticalAlign=middle;whiteSpace=wrap;rounded=0;" vertex="1" parent="1">
          <mxGeometry x="120" y="760" width="80" height="30" as="geometry" />
        </mxCell>
        <mxCell id="7BjRfpzNFmG8VPF8MhMl-39" value="Data&amp;nbsp;" style="text;html=1;strokeColor=none;fillColor=none;align=center;verticalAlign=middle;whiteSpace=wrap;rounded=0;" vertex="1" parent="1">
          <mxGeometry x="420" y="760" width="60" height="30" as="geometry" />
        </mxCell>
        <mxCell id="7BjRfpzNFmG8VPF8MhMl-40" value="Name" style="text;html=1;strokeColor=none;fillColor=none;align=center;verticalAlign=middle;whiteSpace=wrap;rounded=0;" vertex="1" parent="1">
          <mxGeometry x="130" y="630" width="60" height="30" as="geometry" />
        </mxCell>
        <mxCell id="7BjRfpzNFmG8VPF8MhMl-41" value="Data" style="text;html=1;strokeColor=none;fillColor=none;align=center;verticalAlign=middle;whiteSpace=wrap;rounded=0;" vertex="1" parent="1">
          <mxGeometry x="420" y="630" width="60" height="30" as="geometry" />
        </mxCell>
        <mxCell id="7BjRfpzNFmG8VPF8MhMl-48" value="Header" style="text;html=1;strokeColor=none;fillColor=none;align=center;verticalAlign=middle;whiteSpace=wrap;rounded=0;" vertex="1" parent="1">
          <mxGeometry y="85" width="60" height="30" as="geometry" />
        </mxCell>
        <mxCell id="7BjRfpzNFmG8VPF8MhMl-49" value="Toolbar" style="text;html=1;strokeColor=none;fillColor=none;align=center;verticalAlign=middle;whiteSpace=wrap;rounded=0;" vertex="1" parent="1">
          <mxGeometry y="125" width="60" height="30" as="geometry" />
        </mxCell>
        <mxCell id="7BjRfpzNFmG8VPF8MhMl-50" value="Formula" style="text;html=1;strokeColor=none;fillColor=none;align=center;verticalAlign=middle;whiteSpace=wrap;rounded=0;" vertex="1" parent="1">
          <mxGeometry y="165" width="60" height="30" as="geometry" />
        </mxCell>
        <mxCell id="7BjRfpzNFmG8VPF8MhMl-51" value="Table" style="text;html=1;strokeColor=none;fillColor=none;align=center;verticalAlign=middle;whiteSpace=wrap;rounded=0;" vertex="1" parent="1">
          <mxGeometry y="260" width="60" height="30" as="geometry" />
        </mxCell>
      </root>
    </mxGraphModel>
  </diagram>
</mxfile>
